<svg xmlns="http://www.w3.org/2000/svg" xmlns:xlink="http://www.w3.org/1999/xlink" viewBox="0 0 217.5 390"><defs><style>.cls-1{fill:url(#Namnlös_övertoning_29);}.cls-2{fill:url(#Namnlös_övertoning_65);}.cls-3{fill:url(#Namnlös_övertoning_31);}.cls-4{fill:url(#Namnlös_övertoning_90);}.cls-5{fill:url(#Namnlös_övertoning_30);}.cls-6{fill:url(#Namnlös_övertoning_65-2);}.cls-7{fill:url(#Namnlös_övertoning_96);}.cls-8{fill:url(#Namnlös_övertoning_96-2);}</style><linearGradient id="Namnlös_övertoning_29" x1="-37.63" y1="341.38" x2="300.22" y2="3.53" gradientUnits="userSpaceOnUse"><stop offset="0" stop-color="#172347"/><stop offset="0.2" stop-color="#025385"/><stop offset="0.4" stop-color="#0ef3c5"/><stop offset="0.6" stop-color="#04e2b7"/><stop offset="0.8" stop-color="#038298"/><stop offset="1" stop-color="#015268"/></linearGradient><linearGradient id="Namnlös_övertoning_65" x1="24.24" y1="193.26" x2="95.49" y2="122.01" gradientUnits="userSpaceOnUse"><stop offset="0" stop-color="#172347" stop-opacity="0.3"/><stop offset="1" stop-color="#0ef3c5" stop-opacity="0"/></linearGradient><linearGradient id="Namnlös_övertoning_31" x1="186.15" y1="161.36" x2="225.26" y2="161.36" gradientTransform="translate(449.72 216.61) rotate(135)" gradientUnits="userSpaceOnUse"><stop offset="0" stop-color="#172347" stop-opacity="0.15"/><stop offset="0.6" stop-color="#0ef3c5" stop-opacity="0"/></linearGradient><linearGradient id="Namnlös_övertoning_90" x1="151.13" y1="288.65" x2="197.61" y2="242.17" gradientTransform="translate(-112.22 93.74) rotate(-45)" gradientUnits="userSpaceOnUse"><stop offset="0" stop-color="#172347" stop-opacity="0.15"/><stop offset="1" stop-color="#038298" stop-opacity="0"/></linearGradient><linearGradient id="Namnlös_övertoning_30" x1="29.7" y1="65.16" x2="81.86" y2="65.16" gradientUnits="userSpaceOnUse"><stop offset="0" stop-color="#172347" stop-opacity="0.3"/><stop offset="0.88" stop-color="#0ef3c5" stop-opacity="0"/></linearGradient><linearGradient id="Namnlös_övertoning_65-2" x1="92.96" y1="346.82" x2="131.95" y2="307.83" gradientTransform="matrix(0.71, 0.71, 0.71, -0.71, -112.22, 216.61)" xlink:href="#Namnlös_övertoning_65"/><linearGradient id="Namnlös_övertoning_96" x1="112.07" y1="112.07" x2="45.46" y2="45.46" gradientTransform="translate(82.69 -34.25) rotate(45)" gradientUnits="userSpaceOnUse"><stop offset="0" stop-color="#172347" stop-opacity="0.2"/><stop offset="0.63" stop-color="#0ef3c5" stop-opacity="0"/></linearGradient><linearGradient id="Namnlös_övertoning_96-2" x1="136.81" y1="194.31" x2="70.21" y2="127.71" gradientTransform="translate(94.15 327.41) rotate(-135)" xlink:href="#Namnlös_övertoning_96"/></defs><g id="Lager_2" data-name="Lager 2"><g id="Lager_1-2" data-name="Lager 1"><path class="cls-1" d="M198.75,0a18.7,18.7,0,0,0-13.26,5.49h0L108.75,82.23,32,5.49A18.75,18.75,0,0,0,0,18.75v352.5a18.75,18.75,0,0,0,37.5,0V206.52l71.25-71.25L180,206.52V371.25a18.75,18.75,0,0,0,37.5,0V18.75A18.75,18.75,0,0,0,198.75,0ZM37.5,153.48V64l44.73,44.73Zm97.77-44.73L180,64v89.46Z"/><polygon class="cls-2" points="37.5 206.52 108.75 135.27 82.23 108.75 37.5 153.48 37.5 206.52"/><path class="cls-3" d="M180,206.52v65.73h37.5V253.34a22.49,22.49,0,0,0-6.59-15.91Z"/><polygon class="cls-4" points="217.5 190.98 217.5 125.25 180 125.25 180 153.48 217.5 190.98"/><path class="cls-5" d="M50.3,23.79l58.45,58.44L82.23,108.75,37.5,64V29.09A7.5,7.5,0,0,1,50.3,23.79Z"/><path class="cls-6" d="M217.5,44.62V92.25H180V64l24.7-24.7A7.5,7.5,0,0,1,217.5,44.62Z"/><rect class="cls-7" x="63.94" y="64.58" width="37.5" height="36.21" transform="translate(-34.25 82.69) rotate(-45)"/><rect class="cls-8" x="116.06" y="116.71" width="37.5" height="36.21" transform="translate(-55.84 134.81) rotate(-45)"/></g></g></svg>